<?xml version="1.0" encoding="utf-8"?>
<!-- Generator: Adobe Illustrator 18.0.0, SVG Export Plug-In . SVG Version: 6.00 Build 0)  -->
<!DOCTYPE svg PUBLIC "-//W3C//DTD SVG 1.1//EN" "http://www.w3.org/Graphics/SVG/1.1/DTD/svg11.dtd">
<svg version="1.1" id="Layer_1" focusable="false" xmlns="http://www.w3.org/2000/svg" xmlns:xlink="http://www.w3.org/1999/xlink"
	 x="0px" y="0px" viewBox="0 123 100 61" enable-background="new 0 123 100 61" xml:space="preserve">
<path fill="#40E0D0" d="M70.1,143.6H2.7c-1.5,0-2.7,1.2-2.7,2.7v12.5c0,1.5,1.2,2.7,2.7,2.7h67.4v10.3c0,4.8,5.8,7.2,9.1,3.8
	l19.2-19.2c2.1-2.1,2.1-5.5,0-7.6l-19.2-19.2c-3.4-3.4-9.1-1-9.1,3.8V143.6z"/>
<path display="none" fill="#40E0D0" d="M-170.9,143.6h-67.4c-1.5,0-2.7,1.2-2.7,2.7v12.5c0,1.5,1.2,2.7,2.7,2.7h67.4v10.3
	c0,4.8,5.8,7.2,9.1,3.8l19.2-19.2c2.1-2.1,2.1-5.5,0-7.6l-19.2-19.2c-3.4-3.4-9.1-1-9.1,3.8V143.6z"/>
</svg>
